<!-- Generated by IcoMoon.io -->
<svg class="icon" version="1.1" xmlns="http://www.w3.org/2000/svg" viewBox="0 0 24 24">
<title>refresh</title>
<path d="M13.453 11.985h8.545v-8.543c-0.013-1.891-1.118-2.346-2.455-1.008l-1.923 1.93c-1.691-1.325-3.761-2.050-5.942-2.050-2.583 0-5.014 1.007-6.839 2.834-1.831 1.82-2.838 4.254-2.838 6.837 0 2.588 1.006 5.019 2.834 6.844 1.828 1.828 4.257 2.836 6.842 2.836 2.583 0 5.014-1.008 6.842-2.838 0.493-0.495 0.93-1.035 1.3-1.608 0.578-0.902 0.317-2.1-0.583-2.674-0.898-0.577-2.096-0.315-2.673 0.583-0.222 0.345-0.487 0.667-0.78 0.966-1.098 1.096-2.556 1.7-4.106 1.7s-3.008-0.602-4.106-1.7c-1.095-1.096-1.7-2.554-1.7-4.108 0-1.55 0.603-3.008 1.7-4.101 1.098-1.096 2.556-1.701 4.106-1.701 1.146 0 2.243 0.335 3.181 0.953l-2.413 2.418c-1.338 1.336-0.883 2.43 1.006 2.43z"></path>
</svg>
