<!-- Generated by IcoMoon.io -->
<svg class="icon" version="1.1" xmlns="http://www.w3.org/2000/svg" viewBox="0 0 24 24">
<title>times</title>
<path d="M19.219 4.781c-1.040-1.041-2.731-1.041-3.771 0l-3.448 3.448-3.448-3.448c-1.040-1.041-2.731-1.041-3.771 0-1.041 1.041-1.041 2.729 0 3.771l3.447 3.448-3.447 3.448c-1.041 1.041-1.041 2.729 0 3.771 0.52 0.521 1.203 0.781 1.885 0.781s1.365-0.26 1.885-0.781l3.448-3.448 3.448 3.448c0.52 0.521 1.203 0.781 1.885 0.781s1.365-0.26 1.885-0.781c1.041-1.041 1.041-2.729 0-3.771l-3.447-3.448 3.447-3.448c1.041-1.041 1.041-2.729 0-3.771z"></path>
</svg>
